<?xml version="1.0" ?><!DOCTYPE svg  PUBLIC '-//W3C//DTD SVG 1.1//EN'  'http://www.w3.org/Graphics/SVG/1.1/DTD/svg11.dtd'><svg enable-background="new 0 0 128 128" id="Слой_1" version="1.1" viewBox="0 0 128 128" xml:space="preserve" xmlns="http://www.w3.org/2000/svg" xmlns:xlink="http://www.w3.org/1999/xlink"><g><path d="M77.2,24.5H50.8v26.2H24.5v26.5h26.2v26.2h26.5V77.2h26.2V50.8H77.2V24.5z M99.5,54.8v18.5H73.2v26.2H54.8   V73.2H28.5V54.8h26.2V28.5h18.5v26.2H99.5z" fill="#3EBBC4"/><path d="M64,2C29.8,2,2,29.8,2,64s27.8,62,62,62s62-27.8,62-62S98.2,2,64,2z M64,122C32,122,6,96,6,64S32,6,64,6   s58,26,58,58S96,122,64,122z" fill="#3EBBC4"/></g></svg>